%TF.GenerationSoftware,KiCad,Pcbnew,10.0.0*%
%TF.CreationDate,2026-04-19T09:52:37+05:30*%
%TF.ProjectId,Miniinverter,4d696e69-696e-4766-9572-7465722e6b69,rev?*%
%TF.SameCoordinates,Original*%
%TF.FileFunction,Copper,L2,Bot*%
%TF.FilePolarity,Positive*%
%FSLAX46Y46*%
G04 Gerber Fmt 4.6, Leading zero omitted, Abs format (unit mm)*
G04 Created by KiCad (PCBNEW 10.0.0) date 2026-04-19 09:52:37*
%MOMM*%
%LPD*%
G01*
G04 APERTURE LIST*
G04 Aperture macros list*
%AMRoundRect*
0 Rectangle with rounded corners*
0 $1 Rounding radius*
0 $2 $3 $4 $5 $6 $7 $8 $9 X,Y pos of 4 corners*
0 Add a 4 corners polygon primitive as box body*
4,1,4,$2,$3,$4,$5,$6,$7,$8,$9,$2,$3,0*
0 Add four circle primitives for the rounded corners*
1,1,$1+$1,$2,$3*
1,1,$1+$1,$4,$5*
1,1,$1+$1,$6,$7*
1,1,$1+$1,$8,$9*
0 Add four rect primitives between the rounded corners*
20,1,$1+$1,$2,$3,$4,$5,0*
20,1,$1+$1,$4,$5,$6,$7,0*
20,1,$1+$1,$6,$7,$8,$9,0*
20,1,$1+$1,$8,$9,$2,$3,0*%
G04 Aperture macros list end*
%TA.AperFunction,ComponentPad*%
%ADD10C,2.000000*%
%TD*%
%TA.AperFunction,ComponentPad*%
%ADD11RoundRect,0.250000X-0.750000X-0.750000X0.750000X-0.750000X0.750000X0.750000X-0.750000X0.750000X0*%
%TD*%
%TA.AperFunction,ComponentPad*%
%ADD12C,1.400000*%
%TD*%
%TA.AperFunction,ComponentPad*%
%ADD13C,1.620000*%
%TD*%
%TA.AperFunction,ComponentPad*%
%ADD14RoundRect,0.250000X-0.550000X-0.550000X0.550000X-0.550000X0.550000X0.550000X-0.550000X0.550000X0*%
%TD*%
%TA.AperFunction,ComponentPad*%
%ADD15C,1.600000*%
%TD*%
%TA.AperFunction,ComponentPad*%
%ADD16RoundRect,0.250000X0.750000X-0.750000X0.750000X0.750000X-0.750000X0.750000X-0.750000X-0.750000X0*%
%TD*%
%TA.AperFunction,ComponentPad*%
%ADD17C,2.200000*%
%TD*%
%TA.AperFunction,ComponentPad*%
%ADD18RoundRect,0.249999X-0.850001X-0.850001X0.850001X-0.850001X0.850001X0.850001X-0.850001X0.850001X0*%
%TD*%
%TA.AperFunction,ComponentPad*%
%ADD19R,1.905000X2.000000*%
%TD*%
%TA.AperFunction,ComponentPad*%
%ADD20O,1.905000X2.000000*%
%TD*%
%TA.AperFunction,ComponentPad*%
%ADD21R,1.800000X1.800000*%
%TD*%
%TA.AperFunction,ComponentPad*%
%ADD22C,1.800000*%
%TD*%
%TA.AperFunction,Conductor*%
%ADD23C,0.400000*%
%TD*%
G04 APERTURE END LIST*
D10*
%TO.P,T1,5,SB_5*%
%TO.N,Output 3*%
X41040000Y-59500000D03*
%TO.P,T1,4,SC_4*%
%TO.N,Input*%
X38500000Y-59500000D03*
%TO.P,T1,3,SA_3*%
%TO.N,Output 1*%
X35960000Y-59500000D03*
%TO.P,T1,2,AB_2*%
%TO.N,Net-(D3-A)*%
X33420000Y-59500000D03*
D11*
%TO.P,T1,1,AA_1*%
%TO.N,Net-(D3-K)*%
X30880000Y-59500000D03*
%TD*%
D12*
%TO.P,R3,2*%
%TO.N,Net-(Q2-G)*%
X51080000Y-26150000D03*
%TO.P,R3,1*%
%TO.N,Net-(U1-HO)*%
X46000000Y-26150000D03*
%TD*%
D13*
%TO.P,RV1,3,3_3*%
%TO.N,Net-(R6-Pad1)*%
X20500000Y-36000000D03*
%TO.P,RV1,2,2_2*%
X23000000Y-33500000D03*
%TO.P,RV1,1,1_1*%
%TO.N,Net-(U1-CT)*%
X20500000Y-31000000D03*
%TD*%
D14*
%TO.P,C1,1*%
%TO.N,Input*%
X47500000Y-57500000D03*
D15*
%TO.P,C1,2*%
%TO.N,GND*%
X50000000Y-57500000D03*
%TD*%
D10*
%TO.P,BT1,2,-_2*%
%TO.N,GND*%
X48000000Y-46600000D03*
D16*
%TO.P,BT1,1,+_1*%
%TO.N,Net-(BT1-+)*%
X48000000Y-49140000D03*
%TD*%
D15*
%TO.P,U1,8,VB_8*%
%TO.N,Input*%
X37810000Y-32190000D03*
%TO.P,U1,7,HO_7*%
%TO.N,Net-(U1-HO)*%
X37810000Y-34730000D03*
%TO.P,U1,6,VS_6*%
%TO.N,GND*%
X37810000Y-37270000D03*
%TO.P,U1,5,LO_5*%
%TO.N,Net-(U1-LO)*%
X37810000Y-39810000D03*
%TO.P,U1,4,COM_4*%
%TO.N,GND*%
X30190000Y-39810000D03*
%TO.P,U1,3,CT_3*%
%TO.N,Net-(U1-CT)*%
X30190000Y-37270000D03*
%TO.P,U1,2,RT_2*%
%TO.N,Net-(U1-RT)*%
X30190000Y-34730000D03*
D14*
%TO.P,U1,1,VCC_1*%
%TO.N,Input*%
X30190000Y-32190000D03*
%TD*%
D17*
%TO.P,D2,2,A_2*%
%TO.N,Net-(BT1-+)*%
X40080000Y-51000000D03*
D18*
%TO.P,D2,1,K_1*%
%TO.N,Input*%
X29920000Y-51000000D03*
%TD*%
D12*
%TO.P,R6,1*%
%TO.N,Net-(R6-Pad1)*%
X50100000Y-35090000D03*
%TO.P,R6,2*%
%TO.N,Net-(U1-RT)*%
X50100000Y-30010000D03*
%TD*%
%TO.P,R5,1*%
%TO.N,Net-(R2-Pad2)*%
X46950000Y-35090000D03*
%TO.P,R5,2*%
%TO.N,Net-(Q1-G)*%
X46950000Y-30010000D03*
%TD*%
%TO.P,R4,1*%
%TO.N,Net-(U1-LO)*%
X42000000Y-37540000D03*
%TO.P,R4,2*%
%TO.N,Net-(Q1-G)*%
X42000000Y-32460000D03*
%TD*%
%TO.P,R2,1*%
%TO.N,Net-(Q2-G)*%
X46000000Y-23000000D03*
%TO.P,R2,2*%
%TO.N,Net-(R2-Pad2)*%
X51080000Y-23000000D03*
%TD*%
%TO.P,R1,1*%
%TO.N,Input*%
X46000000Y-19850000D03*
%TO.P,R1,2*%
%TO.N,Net-(D1-A)*%
X51080000Y-19850000D03*
%TD*%
D19*
%TO.P,Q2,1,G_1*%
%TO.N,Net-(Q2-G)*%
X33960000Y-23445000D03*
D20*
%TO.P,Q2,2,D_2*%
%TO.N,Output 1*%
X36500000Y-23445000D03*
%TO.P,Q2,3,S_3*%
%TO.N,GND*%
X39040000Y-23445000D03*
%TD*%
D19*
%TO.P,Q1,1,G_1*%
%TO.N,Net-(Q1-G)*%
X21920000Y-23500000D03*
D20*
%TO.P,Q1,2,D_2*%
%TO.N,Output 3*%
X24460000Y-23500000D03*
%TO.P,Q1,3,S_3*%
%TO.N,GND*%
X27000000Y-23500000D03*
%TD*%
D21*
%TO.P,D3,1,K_1*%
%TO.N,Net-(D3-K)*%
X21960000Y-57500000D03*
D22*
%TO.P,D3,2,A_2*%
%TO.N,Net-(D3-A)*%
X24500000Y-57500000D03*
%TD*%
D16*
%TO.P,D1,1,K_1*%
%TO.N,GND*%
X48000000Y-41500000D03*
D10*
%TO.P,D1,2,A_2*%
%TO.N,Net-(D1-A)*%
X48000000Y-38960000D03*
%TD*%
D15*
%TO.P,C4,1*%
%TO.N,Net-(U1-CT)*%
X21750000Y-41500000D03*
%TO.P,C4,2*%
%TO.N,GND*%
X24250000Y-41500000D03*
%TD*%
%TO.P,C3,1*%
%TO.N,Net-(BT1-+)*%
X33250000Y-44950000D03*
%TO.P,C3,2*%
%TO.N,GND*%
X35750000Y-44950000D03*
%TD*%
D14*
%TO.P,C2,1*%
%TO.N,Net-(BT1-+)*%
X21817621Y-49000000D03*
D15*
%TO.P,C2,2*%
%TO.N,GND*%
X24317621Y-49000000D03*
%TD*%
%TO.N,Output 3*%
D23*
X41040000Y-59500000D02*
X41500000Y-59500000D01*
%TO.N,Net-(D3-K)*%
X31000000Y-59500000D02*
X31500000Y-60000000D01*
X30880000Y-59500000D02*
X31000000Y-59500000D01*
%TO.N,Input*%
X38500000Y-59500000D02*
X39500000Y-59500000D01*
%TO.N,Output 1*%
X35960000Y-59960000D02*
X36000000Y-60000000D01*
%TO.N,Net-(D3-A)*%
X33420000Y-59500000D02*
X33420000Y-59920000D01*
%TO.N,Output 1*%
X35960000Y-59500000D02*
X35960000Y-59960000D01*
%TO.N,Net-(D3-A)*%
X33420000Y-59920000D02*
X33500000Y-60000000D01*
%TO.N,GND*%
X35750000Y-44950000D02*
X35950000Y-44950000D01*
%TO.N,Net-(BT1-+)*%
X40080000Y-51000000D02*
X40000000Y-51000000D01*
%TO.N,Input*%
X30500000Y-51000000D02*
X31000000Y-50500000D01*
X29920000Y-51000000D02*
X30500000Y-51000000D01*
%TO.N,Net-(U1-CT)*%
X20500000Y-31000000D02*
X21000000Y-31000000D01*
%TO.N,Net-(R6-Pad1)*%
X23000000Y-33500000D02*
X23500000Y-33500000D01*
%TO.N,Net-(D3-K)*%
X21960000Y-57500000D02*
X22000000Y-57500000D01*
%TO.N,GND*%
X24317621Y-48567621D02*
X24250000Y-48500000D01*
X24317621Y-49000000D02*
X24317621Y-48567621D01*
%TO.N,Net-(BT1-+)*%
X21817621Y-49000000D02*
X21908810Y-49091190D01*
X25317621Y-52500000D02*
X21908810Y-49091190D01*
X38580000Y-52500000D02*
X25317621Y-52500000D01*
X40080000Y-51000000D02*
X38580000Y-52500000D01*
%TO.N,GND*%
X35950000Y-44950000D02*
X36000000Y-45000000D01*
X30290000Y-39210000D02*
X30500000Y-39210000D01*
X30190000Y-39310000D02*
X30290000Y-39210000D01*
X30190000Y-39810000D02*
X30190000Y-39310000D01*
%TO.N,Input*%
X30500000Y-32000000D02*
X30310000Y-32190000D01*
X30190000Y-32190000D02*
X30310000Y-32190000D01*
X38310000Y-32190000D02*
X39000000Y-31500000D01*
X37810000Y-32190000D02*
X38310000Y-32190000D01*
%TO.N,GND*%
X37810000Y-37310000D02*
X38000000Y-37500000D01*
X37810000Y-37270000D02*
X37810000Y-37310000D01*
%TO.N,Net-(Q1-G)*%
X42000000Y-32460000D02*
X42460000Y-32460000D01*
X42460000Y-32460000D02*
X42500000Y-32500000D01*
X46990000Y-30010000D02*
X47000000Y-30000000D01*
X46950000Y-30010000D02*
X46990000Y-30010000D01*
%TO.N,Net-(Q2-G)*%
X51080000Y-26580000D02*
X51500000Y-27000000D01*
X51080000Y-26150000D02*
X51080000Y-26580000D01*
%TO.N,Input*%
X46000000Y-19850000D02*
X46000000Y-20000000D01*
%TO.N,Output 1*%
X36945000Y-23445000D02*
X36500000Y-23445000D01*
X36945000Y-23445000D02*
X37000000Y-23500000D01*
%TO.N,Net-(Q2-G)*%
X34445000Y-23445000D02*
X34500000Y-23500000D01*
X33960000Y-23445000D02*
X34445000Y-23445000D01*
%TO.N,GND*%
X27000000Y-23500000D02*
X27500000Y-23500000D01*
%TO.N,Output 3*%
X24460000Y-23500000D02*
X24500000Y-23500000D01*
%TO.N,Net-(Q1-G)*%
X21920000Y-23920000D02*
X22000000Y-24000000D01*
X21920000Y-23500000D02*
X21920000Y-23920000D01*
%TO.N,Net-(R6-Pad1)*%
X49110051Y-35090000D02*
X50100000Y-35090000D01*
X46494365Y-37705686D02*
X49110051Y-35090000D01*
X46494365Y-52297308D02*
X46494365Y-37705686D01*
X51200000Y-57002943D02*
X46494365Y-52297308D01*
X51200000Y-57997057D02*
X51200000Y-57002943D01*
X50497057Y-58700000D02*
X51200000Y-57997057D01*
X45526166Y-58700000D02*
X50497057Y-58700000D01*
X43500000Y-56673834D02*
X45526166Y-58700000D01*
X27465289Y-56673834D02*
X43500000Y-56673834D01*
X20550000Y-49758545D02*
X27465289Y-56673834D01*
X20550000Y-35950000D02*
X20550000Y-49758545D01*
X23000000Y-33500000D02*
X20550000Y-35950000D01*
X20500000Y-36000000D02*
X23000000Y-33500000D01*
%TO.N,Net-(U1-CT)*%
X25934415Y-37270000D02*
X30190000Y-37270000D01*
X21750000Y-41454415D02*
X25934415Y-37270000D01*
X21750000Y-41500000D02*
X21750000Y-41454415D01*
%TO.N,Net-(Q1-G)*%
X22000000Y-23500000D02*
X21920000Y-23500000D01*
X46950000Y-30010000D02*
X44450000Y-30010000D01*
%TO.N,Net-(U1-RT)*%
X50990000Y-30010000D02*
X51000000Y-30000000D01*
X50100000Y-30010000D02*
X50990000Y-30010000D01*
X43217057Y-33560000D02*
X38199849Y-38577208D01*
X46550000Y-33560000D02*
X43217057Y-33560000D01*
X50100000Y-30010000D02*
X46550000Y-33560000D01*
X38199849Y-38577208D02*
X34037208Y-38577208D01*
X34037208Y-38577208D02*
X30190000Y-34730000D01*
%TO.N,Net-(Q1-G)*%
X44450000Y-30010000D02*
X42000000Y-32460000D01*
%TO.N,Net-(D1-A)*%
X48460000Y-38960000D02*
X48500000Y-39000000D01*
X48000000Y-38960000D02*
X48460000Y-38960000D01*
X52780000Y-34180000D02*
X48000000Y-38960000D01*
X52780000Y-21550000D02*
X52780000Y-34180000D01*
X51080000Y-19850000D02*
X52780000Y-21550000D01*
%TO.N,Net-(R2-Pad2)*%
X52180000Y-24100000D02*
X52180000Y-29860000D01*
X52180000Y-29860000D02*
X46950000Y-35090000D01*
X51080000Y-23000000D02*
X52180000Y-24100000D01*
%TO.N,Net-(Q2-G)*%
X49150000Y-26150000D02*
X51080000Y-26150000D01*
X46000000Y-23000000D02*
X49150000Y-26150000D01*
X44400000Y-21400000D02*
X46000000Y-23000000D01*
X20567500Y-22100000D02*
X21267500Y-21400000D01*
X21267500Y-21400000D02*
X44400000Y-21400000D01*
X32505000Y-24900000D02*
X20567500Y-24900000D01*
X20567500Y-24900000D02*
X20567500Y-22100000D01*
X33960000Y-23445000D02*
X32505000Y-24900000D01*
%TO.N,Output 1*%
X36500000Y-23000000D02*
X36500000Y-23445000D01*
%TO.N,GND*%
X28500000Y-22000000D02*
X27000000Y-23500000D01*
X37595000Y-22000000D02*
X28500000Y-22000000D01*
X39040000Y-23445000D02*
X37595000Y-22000000D01*
X36610000Y-36070000D02*
X36610000Y-25875000D01*
X37810000Y-37270000D02*
X36610000Y-36070000D01*
X36610000Y-25875000D02*
X39040000Y-23445000D01*
%TO.N,Net-(U1-HO)*%
X37810000Y-34730000D02*
X46000000Y-26540000D01*
X46000000Y-26540000D02*
X46000000Y-26150000D01*
%TO.N,Net-(U1-LO)*%
X39730000Y-39810000D02*
X42000000Y-37540000D01*
X37810000Y-39810000D02*
X39730000Y-39810000D01*
%TO.N,Net-(BT1-+)*%
X22950000Y-47867621D02*
X21817621Y-49000000D01*
X22950000Y-41102943D02*
X22950000Y-47867621D01*
X25442943Y-38610000D02*
X22950000Y-41102943D01*
X31107057Y-38610000D02*
X25442943Y-38610000D01*
X36950000Y-44452943D02*
X31107057Y-38610000D01*
X36950000Y-45447057D02*
X36950000Y-44452943D01*
X36247057Y-46150000D02*
X36950000Y-45447057D01*
X34450000Y-46150000D02*
X36247057Y-46150000D01*
X33250000Y-44950000D02*
X34450000Y-46150000D01*
%TO.N,GND*%
X41500000Y-49000000D02*
X50000000Y-57500000D01*
X24317621Y-49000000D02*
X41500000Y-49000000D01*
X24250000Y-41500000D02*
X24250000Y-48500000D01*
X25940000Y-39810000D02*
X24250000Y-41500000D01*
X30190000Y-39810000D02*
X25940000Y-39810000D01*
X35330000Y-44950000D02*
X30190000Y-39810000D01*
X35750000Y-44950000D02*
X35330000Y-44950000D01*
%TD*%
%TA.AperFunction,Conductor*%
%TO.N,GND*%
G36*
X45892442Y-34280185D02*
G01*
X45938197Y-34332989D01*
X45948141Y-34402147D01*
X45925722Y-34457384D01*
X45923241Y-34460797D01*
X45837454Y-34629163D01*
X45779059Y-34808881D01*
X45749500Y-34995513D01*
X45749500Y-35184486D01*
X45779059Y-35371118D01*
X45837454Y-35550836D01*
X45909953Y-35693122D01*
X45923240Y-35719199D01*
X46034310Y-35872073D01*
X46167927Y-36005690D01*
X46320801Y-36116760D01*
X46400347Y-36157290D01*
X46489163Y-36202545D01*
X46489165Y-36202545D01*
X46489168Y-36202547D01*
X46668882Y-36260940D01*
X46669858Y-36261094D01*
X46670200Y-36261256D01*
X46673610Y-36262075D01*
X46673438Y-36262791D01*
X46732992Y-36291021D01*
X46769926Y-36350332D01*
X46768930Y-36420194D01*
X46738144Y-36471249D01*
X45950253Y-37259139D01*
X45950252Y-37259140D01*
X45873587Y-37373878D01*
X45820786Y-37501353D01*
X45820783Y-37501365D01*
X45803137Y-37590080D01*
X45800804Y-37601811D01*
X45793865Y-37636693D01*
X45793865Y-52228314D01*
X45793865Y-52366302D01*
X45793865Y-52366304D01*
X45793864Y-52366304D01*
X45820783Y-52501630D01*
X45820786Y-52501640D01*
X45873587Y-52629115D01*
X45950252Y-52743853D01*
X45950253Y-52743854D01*
X49380733Y-56174333D01*
X49414218Y-56235656D01*
X49409234Y-56305348D01*
X49367362Y-56361281D01*
X49349350Y-56372497D01*
X49318649Y-56388140D01*
X49318645Y-56388143D01*
X49274077Y-56420523D01*
X49274077Y-56420524D01*
X49953553Y-57100000D01*
X49947339Y-57100000D01*
X49845606Y-57127259D01*
X49754394Y-57179920D01*
X49679920Y-57254394D01*
X49627259Y-57345606D01*
X49600000Y-57447339D01*
X49600000Y-57453553D01*
X48920524Y-56774077D01*
X48882719Y-56777053D01*
X48814341Y-56762689D01*
X48764584Y-56713638D01*
X48755285Y-56692444D01*
X48734814Y-56630666D01*
X48642712Y-56481344D01*
X48518656Y-56357288D01*
X48369334Y-56265186D01*
X48202797Y-56210001D01*
X48202795Y-56210000D01*
X48100010Y-56199500D01*
X46899998Y-56199500D01*
X46899981Y-56199501D01*
X46797203Y-56210000D01*
X46797200Y-56210001D01*
X46630668Y-56265185D01*
X46630663Y-56265187D01*
X46481342Y-56357289D01*
X46357289Y-56481342D01*
X46265187Y-56630663D01*
X46265185Y-56630668D01*
X46244716Y-56692439D01*
X46210001Y-56797203D01*
X46210001Y-56797204D01*
X46210000Y-56797204D01*
X46199500Y-56899983D01*
X46199500Y-56899991D01*
X46199500Y-57447339D01*
X46199501Y-57875500D01*
X46179817Y-57942539D01*
X46127013Y-57988294D01*
X46075501Y-57999500D01*
X45867684Y-57999500D01*
X45800645Y-57979815D01*
X45780003Y-57963181D01*
X43946546Y-56129722D01*
X43946545Y-56129721D01*
X43831807Y-56053056D01*
X43704332Y-56000255D01*
X43704322Y-56000252D01*
X43568996Y-55973334D01*
X43568994Y-55973334D01*
X43568993Y-55973334D01*
X27806807Y-55973334D01*
X27739768Y-55953649D01*
X27719126Y-55937015D01*
X25194292Y-53412181D01*
X25160807Y-53350858D01*
X25165791Y-53281166D01*
X25207663Y-53225233D01*
X25273127Y-53200816D01*
X25281973Y-53200500D01*
X38648996Y-53200500D01*
X38740040Y-53182389D01*
X38784328Y-53173580D01*
X38848069Y-53147177D01*
X38911807Y-53120777D01*
X38911808Y-53120776D01*
X38911811Y-53120775D01*
X39026543Y-53044114D01*
X39503818Y-52566837D01*
X39565138Y-52533355D01*
X39629812Y-52536589D01*
X39705215Y-52561090D01*
X39954038Y-52600500D01*
X39954039Y-52600500D01*
X40205961Y-52600500D01*
X40205962Y-52600500D01*
X40454785Y-52561090D01*
X40694379Y-52483241D01*
X40918845Y-52368870D01*
X41122656Y-52220793D01*
X41300793Y-52042656D01*
X41448870Y-51838845D01*
X41563241Y-51614379D01*
X41641090Y-51374785D01*
X41680500Y-51125962D01*
X41680500Y-50874038D01*
X41641090Y-50625215D01*
X41563241Y-50385621D01*
X41563239Y-50385618D01*
X41563239Y-50385616D01*
X41473418Y-50209334D01*
X41448870Y-50161155D01*
X41429952Y-50135117D01*
X41300798Y-49957350D01*
X41300794Y-49957345D01*
X41122654Y-49779205D01*
X41122649Y-49779201D01*
X40918848Y-49631132D01*
X40918847Y-49631131D01*
X40918845Y-49631130D01*
X40848747Y-49595413D01*
X40694383Y-49516760D01*
X40454785Y-49438910D01*
X40205962Y-49399500D01*
X39954038Y-49399500D01*
X39887738Y-49410001D01*
X39705214Y-49438910D01*
X39465616Y-49516760D01*
X39241151Y-49631132D01*
X39037350Y-49779201D01*
X39037345Y-49779205D01*
X38859205Y-49957345D01*
X38859201Y-49957350D01*
X38711132Y-50161151D01*
X38596760Y-50385616D01*
X38518910Y-50625214D01*
X38479500Y-50874038D01*
X38479500Y-51125961D01*
X38518910Y-51374786D01*
X38518910Y-51374789D01*
X38543408Y-51450184D01*
X38545403Y-51520025D01*
X38513158Y-51576183D01*
X38326160Y-51763182D01*
X38264840Y-51796666D01*
X38238481Y-51799500D01*
X31644500Y-51799500D01*
X31577461Y-51779815D01*
X31531706Y-51727011D01*
X31520500Y-51675500D01*
X31520500Y-51019499D01*
X31540185Y-50952460D01*
X31541398Y-50950609D01*
X31620774Y-50831813D01*
X31620776Y-50831809D01*
X31673578Y-50704332D01*
X31673580Y-50704328D01*
X31688365Y-50629999D01*
X31700500Y-50568996D01*
X31700500Y-50431003D01*
X31673581Y-50295676D01*
X31673580Y-50295675D01*
X31673580Y-50295671D01*
X31620775Y-50168189D01*
X31544114Y-50053457D01*
X31544112Y-50053454D01*
X31541752Y-50051094D01*
X31540471Y-50049018D01*
X31540249Y-50048747D01*
X31540285Y-50048716D01*
X31511727Y-50002417D01*
X31496793Y-49957350D01*
X31454814Y-49830665D01*
X31362712Y-49681344D01*
X31238656Y-49557288D01*
X31089335Y-49465186D01*
X30922798Y-49410001D01*
X30922796Y-49410000D01*
X30820017Y-49399500D01*
X30820010Y-49399500D01*
X29019990Y-49399500D01*
X29019982Y-49399500D01*
X28917203Y-49410000D01*
X28917202Y-49410001D01*
X28834669Y-49437349D01*
X28750667Y-49465185D01*
X28750662Y-49465187D01*
X28601342Y-49557289D01*
X28477289Y-49681342D01*
X28385187Y-49830662D01*
X28385186Y-49830665D01*
X28330001Y-49997202D01*
X28330001Y-49997203D01*
X28330000Y-49997203D01*
X28319500Y-50099982D01*
X28319500Y-51675500D01*
X28299815Y-51742539D01*
X28247011Y-51788294D01*
X28195500Y-51799500D01*
X25659140Y-51799500D01*
X25592101Y-51779815D01*
X25571459Y-51763181D01*
X24319959Y-50511681D01*
X24286474Y-50450358D01*
X24291458Y-50380666D01*
X24333330Y-50324733D01*
X24398794Y-50300316D01*
X24407640Y-50300000D01*
X24419938Y-50300000D01*
X24622038Y-50267990D01*
X24816652Y-50204755D01*
X24998970Y-50111859D01*
X25043542Y-50079474D01*
X24364068Y-49400000D01*
X24370282Y-49400000D01*
X24472015Y-49372741D01*
X24563227Y-49320080D01*
X24637701Y-49245606D01*
X24690362Y-49154394D01*
X24717621Y-49052661D01*
X24717621Y-49046447D01*
X25397095Y-49725921D01*
X25429480Y-49681349D01*
X25522376Y-49499031D01*
X25585611Y-49304417D01*
X25617621Y-49102317D01*
X25617621Y-48897682D01*
X25585611Y-48695582D01*
X25522376Y-48500968D01*
X25429480Y-48318650D01*
X25397095Y-48274077D01*
X25397095Y-48274076D01*
X24717621Y-48953551D01*
X24717621Y-48947339D01*
X24690362Y-48845606D01*
X24637701Y-48754394D01*
X24563227Y-48679920D01*
X24472015Y-48627259D01*
X24370282Y-48600000D01*
X24364067Y-48600000D01*
X25043543Y-47920524D01*
X25043542Y-47920523D01*
X24998980Y-47888147D01*
X24998971Y-47888141D01*
X24816652Y-47795244D01*
X24622038Y-47732009D01*
X24419938Y-47700000D01*
X24215304Y-47700000D01*
X24013203Y-47732009D01*
X23813961Y-47796749D01*
X23813327Y-47794799D01*
X23752389Y-47801303D01*
X23689934Y-47769980D01*
X23654328Y-47709863D01*
X23650500Y-47679290D01*
X23650500Y-42842782D01*
X23670185Y-42775743D01*
X23722989Y-42729988D01*
X23792147Y-42720044D01*
X23812819Y-42724851D01*
X23945582Y-42767990D01*
X24147683Y-42800000D01*
X24352317Y-42800000D01*
X24554417Y-42767990D01*
X24749031Y-42704755D01*
X24931349Y-42611859D01*
X24975921Y-42579474D01*
X24296447Y-41900000D01*
X24302661Y-41900000D01*
X24404394Y-41872741D01*
X24495606Y-41820080D01*
X24570080Y-41745606D01*
X24622741Y-41654394D01*
X24650000Y-41552661D01*
X24650000Y-41546447D01*
X25329474Y-42225921D01*
X25361859Y-42181349D01*
X25454755Y-41999031D01*
X25517990Y-41804417D01*
X25550000Y-41602317D01*
X25550000Y-41397682D01*
X25517990Y-41195582D01*
X25454755Y-41000968D01*
X25402550Y-40898510D01*
X25361859Y-40818650D01*
X25329474Y-40774077D01*
X25329474Y-40774076D01*
X24650000Y-41453551D01*
X24650000Y-41447339D01*
X24622741Y-41345606D01*
X24570080Y-41254394D01*
X24495606Y-41179920D01*
X24404394Y-41127259D01*
X24302661Y-41100000D01*
X24296446Y-41100000D01*
X24975922Y-40420524D01*
X24975921Y-40420523D01*
X24931359Y-40388147D01*
X24931340Y-40388135D01*
X24900651Y-40372498D01*
X24849855Y-40324524D01*
X24833060Y-40256703D01*
X24855598Y-40190568D01*
X24869254Y-40174345D01*
X25696781Y-39346819D01*
X25758104Y-39313334D01*
X25784462Y-39310500D01*
X28814724Y-39310500D01*
X28881763Y-39330185D01*
X28927518Y-39382989D01*
X28937462Y-39452147D01*
X28932655Y-39472817D01*
X28922011Y-39505574D01*
X28922010Y-39505581D01*
X28890000Y-39707682D01*
X28890000Y-39912317D01*
X28922009Y-40114417D01*
X28985244Y-40309031D01*
X29078141Y-40491350D01*
X29078147Y-40491359D01*
X29110523Y-40535921D01*
X29110524Y-40535922D01*
X29790000Y-39856446D01*
X29790000Y-39862661D01*
X29817259Y-39964394D01*
X29869920Y-40055606D01*
X29944394Y-40130080D01*
X30035606Y-40182741D01*
X30137339Y-40210000D01*
X30143553Y-40210000D01*
X29464076Y-40889474D01*
X29508650Y-40921859D01*
X29690968Y-41014755D01*
X29885582Y-41077990D01*
X30087683Y-41110000D01*
X30292317Y-41110000D01*
X30494417Y-41077990D01*
X30689031Y-41014755D01*
X30871349Y-40921859D01*
X30915921Y-40889474D01*
X30236447Y-40210000D01*
X30242661Y-40210000D01*
X30344394Y-40182741D01*
X30435606Y-40130080D01*
X30510080Y-40055606D01*
X30562741Y-39964394D01*
X30590000Y-39862661D01*
X30590000Y-39856447D01*
X31269474Y-40535921D01*
X31301859Y-40491349D01*
X31394755Y-40309029D01*
X31435391Y-40183966D01*
X31474828Y-40126291D01*
X31539187Y-40099092D01*
X31608033Y-40111006D01*
X31641003Y-40134603D01*
X35130733Y-43624333D01*
X35164218Y-43685656D01*
X35159234Y-43755348D01*
X35117362Y-43811281D01*
X35099350Y-43822497D01*
X35068649Y-43838140D01*
X35068645Y-43838143D01*
X35024077Y-43870523D01*
X35024077Y-43870524D01*
X35703553Y-44550000D01*
X35697339Y-44550000D01*
X35595606Y-44577259D01*
X35504394Y-44629920D01*
X35429920Y-44704394D01*
X35377259Y-44795606D01*
X35350000Y-44897339D01*
X35350000Y-44903553D01*
X34670524Y-44224077D01*
X34670523Y-44224077D01*
X34638143Y-44268644D01*
X34610765Y-44322378D01*
X34562790Y-44373174D01*
X34494969Y-44389969D01*
X34428834Y-44367431D01*
X34389795Y-44322378D01*
X34362284Y-44268385D01*
X34241971Y-44102786D01*
X34097213Y-43958028D01*
X33931613Y-43837715D01*
X33931612Y-43837714D01*
X33931610Y-43837713D01*
X33874653Y-43808691D01*
X33749223Y-43744781D01*
X33554534Y-43681522D01*
X33379995Y-43653878D01*
X33352352Y-43649500D01*
X33147648Y-43649500D01*
X33123329Y-43653351D01*
X32945465Y-43681522D01*
X32750776Y-43744781D01*
X32568386Y-43837715D01*
X32402786Y-43958028D01*
X32258028Y-44102786D01*
X32137715Y-44268386D01*
X32044781Y-44450776D01*
X31981522Y-44645465D01*
X31954424Y-44816557D01*
X31949500Y-44847648D01*
X31949500Y-45052352D01*
X31952704Y-45072580D01*
X31981522Y-45254534D01*
X32044781Y-45449223D01*
X32137715Y-45631613D01*
X32258028Y-45797213D01*
X32402786Y-45941971D01*
X32515963Y-46024197D01*
X32568390Y-46062287D01*
X32681424Y-46119881D01*
X32750776Y-46155218D01*
X32750778Y-46155218D01*
X32750781Y-46155220D01*
X32855137Y-46189127D01*
X32945465Y-46218477D01*
X33046557Y-46234488D01*
X33147648Y-46250500D01*
X33147649Y-46250500D01*
X33352350Y-46250500D01*
X33352352Y-46250500D01*
X33469068Y-46232013D01*
X33538362Y-46240967D01*
X33576148Y-46266805D01*
X34003453Y-46694111D01*
X34003454Y-46694112D01*
X34118190Y-46770776D01*
X34216790Y-46811617D01*
X34245671Y-46823580D01*
X34245672Y-46823580D01*
X34245677Y-46823582D01*
X34272545Y-46828925D01*
X34272551Y-46828926D01*
X34272591Y-46828934D01*
X34362937Y-46846905D01*
X34381006Y-46850500D01*
X34381007Y-46850500D01*
X36316053Y-46850500D01*
X36407097Y-46832389D01*
X36451385Y-46823580D01*
X36515126Y-46797177D01*
X36578864Y-46770777D01*
X36578865Y-46770776D01*
X36578868Y-46770775D01*
X36693600Y-46694114D01*
X37494114Y-45893600D01*
X37570775Y-45778868D01*
X37623580Y-45651385D01*
X37650500Y-45516050D01*
X37650500Y-45378063D01*
X37650500Y-44383950D01*
X37650500Y-44383947D01*
X37623581Y-44248620D01*
X37623580Y-44248619D01*
X37623580Y-44248615D01*
X37613416Y-44224077D01*
X37570778Y-44121138D01*
X37570776Y-44121134D01*
X37570775Y-44121132D01*
X37522912Y-44049500D01*
X37522912Y-44049499D01*
X37494115Y-44006401D01*
X37494109Y-44006394D01*
X31553602Y-38065887D01*
X31438864Y-37989222D01*
X31434187Y-37987285D01*
X31379786Y-37943440D01*
X31357726Y-37877145D01*
X31371162Y-37816434D01*
X31395220Y-37769219D01*
X31458477Y-37574534D01*
X31490500Y-37372352D01*
X31490500Y-37320519D01*
X31510185Y-37253480D01*
X31562989Y-37207725D01*
X31632147Y-37197781D01*
X31695703Y-37226806D01*
X31702181Y-37232838D01*
X33590661Y-39121319D01*
X33590662Y-39121320D01*
X33705400Y-39197985D01*
X33832875Y-39250786D01*
X33832880Y-39250788D01*
X33832884Y-39250788D01*
X33832885Y-39250789D01*
X33968211Y-39277708D01*
X33968214Y-39277708D01*
X33968215Y-39277708D01*
X36444854Y-39277708D01*
X36511893Y-39297393D01*
X36557648Y-39350197D01*
X36567592Y-39419355D01*
X36562785Y-39440026D01*
X36541523Y-39505461D01*
X36541523Y-39505464D01*
X36509500Y-39707648D01*
X36509500Y-39912351D01*
X36541522Y-40114534D01*
X36604781Y-40309223D01*
X36644996Y-40388147D01*
X36697585Y-40491359D01*
X36697715Y-40491613D01*
X36818028Y-40657213D01*
X36962786Y-40801971D01*
X37097714Y-40900000D01*
X37128390Y-40922287D01*
X37244607Y-40981503D01*
X37310776Y-41015218D01*
X37310778Y-41015218D01*
X37310781Y-41015220D01*
X37415137Y-41049127D01*
X37505465Y-41078477D01*
X37606557Y-41094488D01*
X37707648Y-41110500D01*
X37707649Y-41110500D01*
X37912351Y-41110500D01*
X37912352Y-41110500D01*
X38114534Y-41078477D01*
X38309219Y-41015220D01*
X38491610Y-40922287D01*
X38584590Y-40854732D01*
X38657213Y-40801971D01*
X38657215Y-40801968D01*
X38657219Y-40801966D01*
X38801966Y-40657219D01*
X38871425Y-40561615D01*
X38926755Y-40518949D01*
X38971744Y-40510500D01*
X39798996Y-40510500D01*
X39895271Y-40491349D01*
X39934328Y-40483580D01*
X40061570Y-40430875D01*
X40061807Y-40430777D01*
X40061808Y-40430776D01*
X40061811Y-40430775D01*
X40176543Y-40354114D01*
X41761254Y-38769401D01*
X41822577Y-38735917D01*
X41868333Y-38734610D01*
X41905519Y-38740500D01*
X41905520Y-38740500D01*
X42094486Y-38740500D01*
X42281118Y-38710940D01*
X42460832Y-38652547D01*
X42629199Y-38566760D01*
X42782073Y-38455690D01*
X42915690Y-38322073D01*
X43026760Y-38169199D01*
X43112547Y-38000832D01*
X43170940Y-37821118D01*
X43179160Y-37769219D01*
X43200500Y-37634486D01*
X43200500Y-37445513D01*
X43170940Y-37258881D01*
X43140580Y-37165444D01*
X43112547Y-37079168D01*
X43112545Y-37079165D01*
X43112545Y-37079163D01*
X43026759Y-36910800D01*
X42997116Y-36870000D01*
X42915690Y-36757927D01*
X42782073Y-36624310D01*
X42629199Y-36513240D01*
X42609208Y-36503054D01*
X42460836Y-36427454D01*
X42281118Y-36369059D01*
X42094486Y-36339500D01*
X42094481Y-36339500D01*
X41905519Y-36339500D01*
X41905514Y-36339500D01*
X41715323Y-36369623D01*
X41646029Y-36360668D01*
X41592577Y-36315672D01*
X41571938Y-36248921D01*
X41590663Y-36181607D01*
X41608241Y-36159471D01*
X43470895Y-34296819D01*
X43532218Y-34263334D01*
X43558576Y-34260500D01*
X45825403Y-34260500D01*
X45892442Y-34280185D01*
G37*
%TD.AperFunction*%
%TA.AperFunction,Conductor*%
G36*
X40807300Y-32825869D02*
G01*
X40863233Y-32867741D01*
X40881896Y-32903730D01*
X40887453Y-32920833D01*
X40958023Y-33059334D01*
X40973240Y-33089199D01*
X41084310Y-33242073D01*
X41217927Y-33375690D01*
X41370801Y-33486760D01*
X41445420Y-33524780D01*
X41539163Y-33572545D01*
X41539165Y-33572545D01*
X41539168Y-33572547D01*
X41718882Y-33630940D01*
X41838165Y-33649832D01*
X41855399Y-33652562D01*
X41918533Y-33682491D01*
X41955465Y-33741802D01*
X41954467Y-33811665D01*
X41923682Y-33862716D01*
X39135666Y-36650732D01*
X39074343Y-36684217D01*
X39004651Y-36679233D01*
X38948718Y-36637361D01*
X38937501Y-36619346D01*
X38921863Y-36588655D01*
X38889474Y-36544077D01*
X38889474Y-36544076D01*
X38210000Y-37223551D01*
X38210000Y-37217339D01*
X38182741Y-37115606D01*
X38130080Y-37024394D01*
X38055606Y-36949920D01*
X37964394Y-36897259D01*
X37862661Y-36870000D01*
X37856446Y-36870000D01*
X38535922Y-36190524D01*
X38535921Y-36190523D01*
X38491359Y-36158147D01*
X38491350Y-36158141D01*
X38398369Y-36110765D01*
X38347573Y-36062790D01*
X38330778Y-35994969D01*
X38353315Y-35928835D01*
X38398370Y-35889795D01*
X38398920Y-35889515D01*
X38491610Y-35842287D01*
X38588091Y-35772190D01*
X38657213Y-35721971D01*
X38657215Y-35721968D01*
X38657219Y-35721966D01*
X38801966Y-35577219D01*
X38801968Y-35577215D01*
X38801971Y-35577213D01*
X38860289Y-35496943D01*
X38922287Y-35411610D01*
X39015220Y-35229219D01*
X39078477Y-35034534D01*
X39110500Y-34832352D01*
X39110500Y-34627648D01*
X39092013Y-34510929D01*
X39100967Y-34441636D01*
X39126802Y-34403853D01*
X40676287Y-32854368D01*
X40737608Y-32820885D01*
X40807300Y-32825869D01*
G37*
%TD.AperFunction*%
%TA.AperFunction,Conductor*%
G36*
X32490256Y-22120185D02*
G01*
X32536011Y-22172989D01*
X32545955Y-22242147D01*
X32539399Y-22267833D01*
X32513408Y-22337517D01*
X32507001Y-22397116D01*
X32507000Y-22397135D01*
X32507000Y-23855980D01*
X32487315Y-23923019D01*
X32470681Y-23943661D01*
X32251162Y-24163181D01*
X32189839Y-24196666D01*
X32163481Y-24199500D01*
X28486073Y-24199500D01*
X28419034Y-24179815D01*
X28373279Y-24127011D01*
X28363335Y-24057853D01*
X28368142Y-24037182D01*
X28416733Y-23887632D01*
X28416733Y-23887629D01*
X28438532Y-23750000D01*
X27548482Y-23750000D01*
X27559111Y-23731591D01*
X27600000Y-23578991D01*
X27600000Y-23421009D01*
X27559111Y-23268409D01*
X27548482Y-23250000D01*
X28438532Y-23250000D01*
X28416734Y-23112371D01*
X28346082Y-22894929D01*
X28242288Y-22691223D01*
X28107902Y-22506257D01*
X27946242Y-22344597D01*
X27946236Y-22344592D01*
X27919019Y-22324818D01*
X27876353Y-22269489D01*
X27870374Y-22199875D01*
X27902979Y-22138080D01*
X27963818Y-22103723D01*
X27991904Y-22100500D01*
X32423217Y-22100500D01*
X32490256Y-22120185D01*
G37*
%TD.AperFunction*%
%TA.AperFunction,Conductor*%
G36*
X38050532Y-22120185D02*
G01*
X38096287Y-22172989D01*
X38106231Y-22242147D01*
X38077206Y-22305703D01*
X38071174Y-22312181D01*
X37932097Y-22451257D01*
X37870627Y-22535864D01*
X37815297Y-22578529D01*
X37745684Y-22584508D01*
X37683889Y-22551902D01*
X37669991Y-22535864D01*
X37608286Y-22450934D01*
X37469533Y-22312181D01*
X37436048Y-22250858D01*
X37441032Y-22181166D01*
X37482904Y-22125233D01*
X37548368Y-22100816D01*
X37557214Y-22100500D01*
X37983493Y-22100500D01*
X38050532Y-22120185D01*
G37*
%TD.AperFunction*%
%TA.AperFunction,Conductor*%
G36*
X54099406Y-17974353D02*
G01*
X54145161Y-18027157D01*
X54156367Y-18078668D01*
X54156367Y-65124268D01*
X54136682Y-65191307D01*
X54083878Y-65237062D01*
X54032367Y-65248268D01*
X18452620Y-65248268D01*
X18385581Y-65228583D01*
X18339826Y-65175779D01*
X18328620Y-65124268D01*
X18328620Y-56552135D01*
X20559500Y-56552135D01*
X20559500Y-58447870D01*
X20559501Y-58447876D01*
X20565908Y-58507483D01*
X20616202Y-58642328D01*
X20616206Y-58642335D01*
X20702452Y-58757544D01*
X20702455Y-58757547D01*
X20817664Y-58843793D01*
X20817671Y-58843797D01*
X20952517Y-58894091D01*
X20952516Y-58894091D01*
X20959444Y-58894835D01*
X21012127Y-58900500D01*
X22907872Y-58900499D01*
X22967483Y-58894091D01*
X23102331Y-58843796D01*
X23217546Y-58757546D01*
X23303796Y-58642331D01*
X23331429Y-58568243D01*
X23333601Y-58562420D01*
X23375471Y-58506486D01*
X23440936Y-58482068D01*
X23509209Y-58496919D01*
X23537464Y-58518071D01*
X23587636Y-58568243D01*
X23587641Y-58568247D01*
X23689603Y-58642326D01*
X23765978Y-58697815D01*
X23894375Y-58763237D01*
X23962393Y-58797895D01*
X23962396Y-58797896D01*
X24067221Y-58831955D01*
X24172049Y-58866015D01*
X24389778Y-58900500D01*
X24389779Y-58900500D01*
X24610221Y-58900500D01*
X24610222Y-58900500D01*
X24827951Y-58866015D01*
X25037606Y-58797895D01*
X25229767Y-58699983D01*
X29379500Y-58699983D01*
X29379500Y-60300001D01*
X29379501Y-60300018D01*
X29390000Y-60402796D01*
X29390001Y-60402799D01*
X29414759Y-60477512D01*
X29445186Y-60569334D01*
X29537288Y-60718656D01*
X29661344Y-60842712D01*
X29810666Y-60934814D01*
X29977203Y-60989999D01*
X30079991Y-61000500D01*
X31680008Y-61000499D01*
X31782797Y-60989999D01*
X31949334Y-60934814D01*
X32098656Y-60842712D01*
X32222712Y-60718656D01*
X32252512Y-60670341D01*
X32304458Y-60623618D01*
X32373420Y-60612395D01*
X32437503Y-60640238D01*
X32438758Y-60641385D01*
X32438786Y-60641353D01*
X32442481Y-60644508D01*
X32442490Y-60644517D01*
X32633567Y-60783343D01*
X32732991Y-60834002D01*
X32844003Y-60890566D01*
X32844005Y-60890566D01*
X32844008Y-60890568D01*
X32964412Y-60929689D01*
X33068631Y-60963553D01*
X33301903Y-61000500D01*
X33301908Y-61000500D01*
X33538097Y-61000500D01*
X33771368Y-60963553D01*
X33995992Y-60890568D01*
X34206433Y-60783343D01*
X34397510Y-60644517D01*
X34564517Y-60477510D01*
X34589682Y-60442872D01*
X34645011Y-60400207D01*
X34714625Y-60394228D01*
X34776420Y-60426833D01*
X34790315Y-60442870D01*
X34815483Y-60477510D01*
X34982490Y-60644517D01*
X35173567Y-60783343D01*
X35272991Y-60834002D01*
X35384003Y-60890566D01*
X35384005Y-60890566D01*
X35384008Y-60890568D01*
X35504412Y-60929689D01*
X35608631Y-60963553D01*
X35841903Y-61000500D01*
X35841908Y-61000500D01*
X36078097Y-61000500D01*
X36311368Y-60963553D01*
X36535992Y-60890568D01*
X36746433Y-60783343D01*
X36937510Y-60644517D01*
X37104517Y-60477510D01*
X37129682Y-60442872D01*
X37185011Y-60400207D01*
X37254625Y-60394228D01*
X37316420Y-60426833D01*
X37330315Y-60442870D01*
X37355483Y-60477510D01*
X37522490Y-60644517D01*
X37713567Y-60783343D01*
X37812991Y-60834002D01*
X37924003Y-60890566D01*
X37924005Y-60890566D01*
X37924008Y-60890568D01*
X38044412Y-60929689D01*
X38148631Y-60963553D01*
X38381903Y-61000500D01*
X38381908Y-61000500D01*
X38618097Y-61000500D01*
X38851368Y-60963553D01*
X39075992Y-60890568D01*
X39286433Y-60783343D01*
X39477510Y-60644517D01*
X39644517Y-60477510D01*
X39669682Y-60442872D01*
X39725011Y-60400207D01*
X39794625Y-60394228D01*
X39856420Y-60426833D01*
X39870315Y-60442870D01*
X39895483Y-60477510D01*
X40062490Y-60644517D01*
X40253567Y-60783343D01*
X40352991Y-60834002D01*
X40464003Y-60890566D01*
X40464005Y-60890566D01*
X40464008Y-60890568D01*
X40584412Y-60929689D01*
X40688631Y-60963553D01*
X40921903Y-61000500D01*
X40921908Y-61000500D01*
X41158097Y-61000500D01*
X41391368Y-60963553D01*
X41615992Y-60890568D01*
X41826433Y-60783343D01*
X42017510Y-60644517D01*
X42184517Y-60477510D01*
X42323343Y-60286433D01*
X42430568Y-60075992D01*
X42503553Y-59851368D01*
X42540500Y-59618097D01*
X42540500Y-59381902D01*
X42503553Y-59148631D01*
X42430566Y-58924003D01*
X42323342Y-58713566D01*
X42313479Y-58699991D01*
X42184517Y-58522490D01*
X42017510Y-58355483D01*
X41826433Y-58216657D01*
X41796460Y-58201385D01*
X41615996Y-58109433D01*
X41391368Y-58036446D01*
X41158097Y-57999500D01*
X41158092Y-57999500D01*
X40921908Y-57999500D01*
X40921903Y-57999500D01*
X40688631Y-58036446D01*
X40464003Y-58109433D01*
X40253566Y-58216657D01*
X40164533Y-58281344D01*
X40062490Y-58355483D01*
X40062488Y-58355485D01*
X40062487Y-58355485D01*
X39895484Y-58522488D01*
X39870318Y-58557127D01*
X39814987Y-58599792D01*
X39745374Y-58605771D01*
X39683579Y-58573165D01*
X39669682Y-58557127D01*
X39644517Y-58522490D01*
X39477510Y-58355483D01*
X39286433Y-58216657D01*
X39256460Y-58201385D01*
X39075996Y-58109433D01*
X38851368Y-58036446D01*
X38618097Y-57999500D01*
X38618092Y-57999500D01*
X38381908Y-57999500D01*
X38381903Y-57999500D01*
X38148631Y-58036446D01*
X37924003Y-58109433D01*
X37713566Y-58216657D01*
X37624533Y-58281344D01*
X37522490Y-58355483D01*
X37522488Y-58355485D01*
X37522487Y-58355485D01*
X37355484Y-58522488D01*
X37330318Y-58557127D01*
X37274987Y-58599792D01*
X37205374Y-58605771D01*
X37143579Y-58573165D01*
X37129682Y-58557127D01*
X37104517Y-58522490D01*
X36937510Y-58355483D01*
X36746433Y-58216657D01*
X36716460Y-58201385D01*
X36535996Y-58109433D01*
X36311368Y-58036446D01*
X36078097Y-57999500D01*
X36078092Y-57999500D01*
X35841908Y-57999500D01*
X35841903Y-57999500D01*
X35608631Y-58036446D01*
X35384003Y-58109433D01*
X35173566Y-58216657D01*
X35084533Y-58281344D01*
X34982490Y-58355483D01*
X34982488Y-58355485D01*
X34982487Y-58355485D01*
X34815484Y-58522488D01*
X34790318Y-58557127D01*
X34734987Y-58599792D01*
X34665374Y-58605771D01*
X34603579Y-58573165D01*
X34589682Y-58557127D01*
X34564517Y-58522490D01*
X34397510Y-58355483D01*
X34206433Y-58216657D01*
X34176460Y-58201385D01*
X33995996Y-58109433D01*
X33771368Y-58036446D01*
X33538097Y-57999500D01*
X33538092Y-57999500D01*
X33301908Y-57999500D01*
X33301903Y-57999500D01*
X33068631Y-58036446D01*
X32844003Y-58109433D01*
X32633566Y-58216657D01*
X32544533Y-58281344D01*
X32442490Y-58355483D01*
X32442488Y-58355485D01*
X32438786Y-58358647D01*
X32437305Y-58356913D01*
X32384110Y-58385791D01*
X32314431Y-58380635D01*
X32258601Y-58338626D01*
X32252511Y-58329656D01*
X32243031Y-58314286D01*
X32222712Y-58281344D01*
X32098656Y-58157288D01*
X31949334Y-58065186D01*
X31782797Y-58010001D01*
X31782795Y-58010000D01*
X31680010Y-57999500D01*
X30079998Y-57999500D01*
X30079981Y-57999501D01*
X29977203Y-58010000D01*
X29977200Y-58010001D01*
X29810668Y-58065185D01*
X29810663Y-58065187D01*
X29661342Y-58157289D01*
X29537289Y-58281342D01*
X29445187Y-58430663D01*
X29445186Y-58430666D01*
X29390001Y-58597203D01*
X29390001Y-58597204D01*
X29390000Y-58597204D01*
X29379500Y-58699983D01*
X25229767Y-58699983D01*
X25234022Y-58697815D01*
X25412365Y-58568242D01*
X25568242Y-58412365D01*
X25697815Y-58234022D01*
X25797895Y-58037606D01*
X25866015Y-57827951D01*
X25900500Y-57610222D01*
X25900500Y-57389778D01*
X25866015Y-57172049D01*
X25797895Y-56962394D01*
X25797895Y-56962393D01*
X25755517Y-56879224D01*
X25697815Y-56765978D01*
X25628906Y-56671132D01*
X25568247Y-56587641D01*
X25568243Y-56587636D01*
X25412363Y-56431756D01*
X25412358Y-56431752D01*
X25234025Y-56302187D01*
X25234024Y-56302186D01*
X25234022Y-56302185D01*
X25116791Y-56242452D01*
X25037606Y-56202104D01*
X25037603Y-56202103D01*
X24827952Y-56133985D01*
X24719086Y-56116742D01*
X24610222Y-56099500D01*
X24389778Y-56099500D01*
X24317201Y-56110995D01*
X24172047Y-56133985D01*
X23962396Y-56202103D01*
X23962393Y-56202104D01*
X23765974Y-56302187D01*
X23587641Y-56431752D01*
X23587636Y-56431756D01*
X23537463Y-56481929D01*
X23476140Y-56515413D01*
X23406448Y-56510428D01*
X23350515Y-56468557D01*
X23333601Y-56437580D01*
X23303797Y-56357671D01*
X23303793Y-56357664D01*
X23217547Y-56242455D01*
X23217544Y-56242452D01*
X23102335Y-56156206D01*
X23102328Y-56156202D01*
X22967482Y-56105908D01*
X22967483Y-56105908D01*
X22907883Y-56099501D01*
X22907881Y-56099500D01*
X22907873Y-56099500D01*
X22907864Y-56099500D01*
X21012129Y-56099500D01*
X21012123Y-56099501D01*
X20952516Y-56105908D01*
X20817671Y-56156202D01*
X20817664Y-56156206D01*
X20702455Y-56242452D01*
X20702452Y-56242455D01*
X20616206Y-56357664D01*
X20616202Y-56357671D01*
X20565908Y-56492517D01*
X20559501Y-56552116D01*
X20559500Y-56552135D01*
X18328620Y-56552135D01*
X18328620Y-35896861D01*
X19189500Y-35896861D01*
X19189500Y-36103139D01*
X19198422Y-36159469D01*
X19221769Y-36306877D01*
X19221769Y-36306880D01*
X19285510Y-36503054D01*
X19344764Y-36619346D01*
X19379160Y-36686852D01*
X19500407Y-36853733D01*
X19646267Y-36999593D01*
X19798387Y-37110115D01*
X19841051Y-37165444D01*
X19849500Y-37210432D01*
X19849500Y-49689551D01*
X19849500Y-49827539D01*
X19849500Y-49827541D01*
X19849499Y-49827541D01*
X19876418Y-49962867D01*
X19876421Y-49962877D01*
X19929222Y-50090352D01*
X20005887Y-50205090D01*
X20005888Y-50205091D01*
X26921175Y-57120376D01*
X26972846Y-57172047D01*
X27018748Y-57217949D01*
X27133471Y-57294605D01*
X27133478Y-57294609D01*
X27203172Y-57323477D01*
X27260960Y-57347414D01*
X27287880Y-57352768D01*
X27383310Y-57371750D01*
X27396295Y-57374334D01*
X27396296Y-57374334D01*
X43158481Y-57374334D01*
X43225520Y-57394019D01*
X43246162Y-57410653D01*
X44982052Y-59146542D01*
X45079622Y-59244112D01*
X45079625Y-59244115D01*
X45194348Y-59320771D01*
X45194352Y-59320773D01*
X45194355Y-59320775D01*
X45269032Y-59351707D01*
X45321837Y-59373580D01*
X45348757Y-59378934D01*
X45445796Y-59398237D01*
X45457172Y-59400500D01*
X45457173Y-59400500D01*
X50566053Y-59400500D01*
X50674469Y-59378934D01*
X50701385Y-59373580D01*
X50765126Y-59347177D01*
X50828864Y-59320777D01*
X50828865Y-59320776D01*
X50828868Y-59320775D01*
X50943600Y-59244114D01*
X51744114Y-58443600D01*
X51820775Y-58328868D01*
X51840461Y-58281343D01*
X51873578Y-58201389D01*
X51873580Y-58201385D01*
X51900500Y-58066050D01*
X51900500Y-57928063D01*
X51900500Y-56933950D01*
X51889614Y-56879225D01*
X51873580Y-56798615D01*
X51820775Y-56671132D01*
X51744114Y-56556400D01*
X51744112Y-56556397D01*
X47231184Y-52043469D01*
X47197699Y-51982146D01*
X47194865Y-51955788D01*
X47194865Y-50764499D01*
X47214550Y-50697460D01*
X47267354Y-50651705D01*
X47318860Y-50640499D01*
X48800008Y-50640499D01*
X48902797Y-50629999D01*
X49069334Y-50574814D01*
X49218656Y-50482712D01*
X49342712Y-50358656D01*
X49434814Y-50209334D01*
X49489999Y-50042797D01*
X49500500Y-49940009D01*
X49500499Y-48339992D01*
X49489999Y-48237203D01*
X49434814Y-48070666D01*
X49342712Y-47921344D01*
X49218656Y-47797288D01*
X49069334Y-47705186D01*
X48902797Y-47650001D01*
X48902795Y-47650000D01*
X48800016Y-47639500D01*
X48737308Y-47639500D01*
X48670269Y-47619815D01*
X48649627Y-47603181D01*
X48211058Y-47164612D01*
X48231591Y-47159111D01*
X48368408Y-47080119D01*
X48480119Y-46968408D01*
X48559111Y-46831591D01*
X48564612Y-46811059D01*
X49222658Y-47469105D01*
X49222658Y-47469104D01*
X49282914Y-47386169D01*
X49282918Y-47386163D01*
X49390102Y-47175802D01*
X49463065Y-46951247D01*
X49500000Y-46718052D01*
X49500000Y-46481947D01*
X49463065Y-46248752D01*
X49390102Y-46024197D01*
X49282914Y-45813828D01*
X49222658Y-45730894D01*
X49222658Y-45730893D01*
X48564612Y-46388940D01*
X48559111Y-46368409D01*
X48480119Y-46231592D01*
X48368408Y-46119881D01*
X48231591Y-46040889D01*
X48211058Y-46035387D01*
X48869105Y-45377340D01*
X48869104Y-45377338D01*
X48786174Y-45317087D01*
X48575802Y-45209897D01*
X48351247Y-45136934D01*
X48351248Y-45136934D01*
X48118052Y-45100000D01*
X47881948Y-45100000D01*
X47648752Y-45136934D01*
X47424196Y-45209897D01*
X47375158Y-45234883D01*
X47306489Y-45247778D01*
X47241749Y-45221500D01*
X47201493Y-45164393D01*
X47194865Y-45124397D01*
X47194865Y-43123999D01*
X47214550Y-43056960D01*
X47267354Y-43011205D01*
X47318865Y-42999999D01*
X47749999Y-42999999D01*
X47750000Y-42999998D01*
X47750000Y-42048482D01*
X47768409Y-42059111D01*
X47921009Y-42100000D01*
X48078991Y-42100000D01*
X48231591Y-42059111D01*
X48250000Y-42048482D01*
X48250000Y-42999999D01*
X48799972Y-42999999D01*
X48799986Y-42999998D01*
X48902697Y-42989505D01*
X49069119Y-42934358D01*
X49069124Y-42934356D01*
X49218345Y-42842315D01*
X49342315Y-42718345D01*
X49434356Y-42569124D01*
X49434358Y-42569119D01*
X49489505Y-42402697D01*
X49489506Y-42402690D01*
X49499999Y-42299986D01*
X49500000Y-42299973D01*
X49500000Y-41750000D01*
X48548482Y-41750000D01*
X48559111Y-41731591D01*
X48600000Y-41578991D01*
X48600000Y-41421009D01*
X48559111Y-41268409D01*
X48548482Y-41250000D01*
X49499999Y-41250000D01*
X49499999Y-40700028D01*
X49499998Y-40700013D01*
X49489505Y-40597302D01*
X49434358Y-40430880D01*
X49434356Y-40430875D01*
X49342315Y-40281654D01*
X49218343Y-40157682D01*
X49169980Y-40127852D01*
X49123255Y-40075904D01*
X49112032Y-40006942D01*
X49139876Y-39942859D01*
X49141362Y-39941233D01*
X49141348Y-39941221D01*
X49144511Y-39937516D01*
X49144517Y-39937510D01*
X49283343Y-39746433D01*
X49390568Y-39535992D01*
X49463553Y-39311368D01*
X49481511Y-39197985D01*
X49500500Y-39078097D01*
X49500500Y-38841902D01*
X49463553Y-38608635D01*
X49463553Y-38608632D01*
X49457230Y-38589175D01*
X49455234Y-38519335D01*
X49487478Y-38463177D01*
X53324114Y-34626543D01*
X53400775Y-34511811D01*
X53401141Y-34510929D01*
X53436540Y-34425466D01*
X53453580Y-34384328D01*
X53477648Y-34263334D01*
X53480500Y-34248996D01*
X53480500Y-21481006D01*
X53478110Y-21468994D01*
X53453580Y-21345672D01*
X53453578Y-21345667D01*
X53400777Y-21218192D01*
X53324112Y-21103454D01*
X53324111Y-21103453D01*
X52309402Y-20088745D01*
X52275917Y-20027422D01*
X52274610Y-19981665D01*
X52280500Y-19944479D01*
X52280500Y-19755513D01*
X52250940Y-19568881D01*
X52192545Y-19389163D01*
X52106759Y-19220800D01*
X51995690Y-19067927D01*
X51862073Y-18934310D01*
X51709199Y-18823240D01*
X51540836Y-18737454D01*
X51361118Y-18679059D01*
X51174486Y-18649500D01*
X51174481Y-18649500D01*
X50985519Y-18649500D01*
X50985514Y-18649500D01*
X50798881Y-18679059D01*
X50619163Y-18737454D01*
X50450800Y-18823240D01*
X50363579Y-18886610D01*
X50297927Y-18934310D01*
X50297925Y-18934312D01*
X50297924Y-18934312D01*
X50164312Y-19067924D01*
X50164312Y-19067925D01*
X50164310Y-19067927D01*
X50116610Y-19133579D01*
X50053240Y-19220800D01*
X49967454Y-19389163D01*
X49909059Y-19568881D01*
X49879500Y-19755513D01*
X49879500Y-19944486D01*
X49909059Y-20131118D01*
X49967454Y-20310836D01*
X50053240Y-20479199D01*
X50164310Y-20632073D01*
X50297927Y-20765690D01*
X50450801Y-20876760D01*
X50530347Y-20917290D01*
X50619163Y-20962545D01*
X50619165Y-20962545D01*
X50619168Y-20962547D01*
X50715497Y-20993846D01*
X50798881Y-21020940D01*
X50985514Y-21050500D01*
X50985519Y-21050500D01*
X51174480Y-21050500D01*
X51174481Y-21050500D01*
X51211666Y-21044610D01*
X51280958Y-21053564D01*
X51318745Y-21079402D01*
X52043181Y-21803838D01*
X52076666Y-21865161D01*
X52079500Y-21891519D01*
X52079500Y-22002375D01*
X52059815Y-22069414D01*
X52007011Y-22115169D01*
X51937853Y-22125113D01*
X51874297Y-22096088D01*
X51867819Y-22090056D01*
X51862075Y-22084312D01*
X51862073Y-22084310D01*
X51709199Y-21973240D01*
X51540836Y-21887454D01*
X51361118Y-21829059D01*
X51174486Y-21799500D01*
X51174481Y-21799500D01*
X50985519Y-21799500D01*
X50985514Y-21799500D01*
X50798881Y-21829059D01*
X50619163Y-21887454D01*
X50450800Y-21973240D01*
X50410700Y-22002375D01*
X50297927Y-22084310D01*
X50297925Y-22084312D01*
X50297924Y-22084312D01*
X50164312Y-22217924D01*
X50164312Y-22217925D01*
X50164310Y-22217927D01*
X50146713Y-22242147D01*
X50053240Y-22370800D01*
X49967454Y-22539163D01*
X49909059Y-22718881D01*
X49879500Y-22905513D01*
X49879500Y-23094486D01*
X49909059Y-23281118D01*
X49967454Y-23460836D01*
X50022567Y-23569000D01*
X50053240Y-23629199D01*
X50164310Y-23782073D01*
X50297927Y-23915690D01*
X50450801Y-24026760D01*
X50496550Y-24050070D01*
X50619163Y-24112545D01*
X50619165Y-24112545D01*
X50619168Y-24112547D01*
X50715497Y-24143846D01*
X50798881Y-24170940D01*
X50985514Y-24200500D01*
X50985519Y-24200500D01*
X51174480Y-24200500D01*
X51174481Y-24200500D01*
X51211666Y-24194610D01*
X51280958Y-24203564D01*
X51318745Y-24229402D01*
X51443181Y-24353838D01*
X51476666Y-24415161D01*
X51479500Y-24441519D01*
X51479500Y-24852624D01*
X51459815Y-24919663D01*
X51407011Y-24965418D01*
X51337853Y-24975362D01*
X51336102Y-24975097D01*
X51174486Y-24949500D01*
X51174481Y-24949500D01*
X50985519Y-24949500D01*
X50985514Y-24949500D01*
X50798881Y-24979059D01*
X50619163Y-25037454D01*
X50450800Y-25123240D01*
X50363579Y-25186610D01*
X50297927Y-25234310D01*
X50297925Y-25234312D01*
X50297924Y-25234312D01*
X50164309Y-25367927D01*
X50142179Y-25398387D01*
X50086848Y-25441052D01*
X50041862Y-25449500D01*
X49491519Y-25449500D01*
X49424480Y-25429815D01*
X49403838Y-25413181D01*
X47229402Y-23238745D01*
X47195917Y-23177422D01*
X47194610Y-23131665D01*
X47197685Y-23112255D01*
X47200500Y-23094481D01*
X47200500Y-22905519D01*
X47200500Y-22905513D01*
X47170940Y-22718881D01*
X47125336Y-22578529D01*
X47112547Y-22539168D01*
X47112545Y-22539165D01*
X47112545Y-22539163D01*
X47056744Y-22429648D01*
X47026760Y-22370801D01*
X46915690Y-22217927D01*
X46782073Y-22084310D01*
X46629199Y-21973240D01*
X46460836Y-21887454D01*
X46281118Y-21829059D01*
X46094486Y-21799500D01*
X46094481Y-21799500D01*
X45905519Y-21799500D01*
X45905514Y-21799500D01*
X45868333Y-21805389D01*
X45799040Y-21796435D01*
X45761254Y-21770597D01*
X44846546Y-20855888D01*
X44846545Y-20855887D01*
X44731807Y-20779222D01*
X44604332Y-20726421D01*
X44604322Y-20726418D01*
X44468996Y-20699500D01*
X44468994Y-20699500D01*
X44468993Y-20699500D01*
X21198507Y-20699500D01*
X21198503Y-20699500D01*
X21090090Y-20721065D01*
X21090089Y-20721065D01*
X21076631Y-20723742D01*
X21063173Y-20726419D01*
X21036768Y-20737356D01*
X21010366Y-20748292D01*
X21010364Y-20748293D01*
X21010363Y-20748292D01*
X20935691Y-20779223D01*
X20830517Y-20849499D01*
X20830516Y-20849498D01*
X20820960Y-20855884D01*
X20820951Y-20855891D01*
X20023388Y-21653453D01*
X20023387Y-21653454D01*
X19971033Y-21731810D01*
X19971031Y-21731812D01*
X19946729Y-21768180D01*
X19946721Y-21768195D01*
X19893921Y-21895667D01*
X19893918Y-21895677D01*
X19867000Y-22031004D01*
X19867000Y-22031007D01*
X19867000Y-24968993D01*
X19867000Y-24968995D01*
X19866999Y-24968995D01*
X19893918Y-25104322D01*
X19893921Y-25104332D01*
X19946721Y-25231804D01*
X19946728Y-25231817D01*
X20023385Y-25346541D01*
X20023388Y-25346545D01*
X20120954Y-25444111D01*
X20120958Y-25444114D01*
X20235682Y-25520771D01*
X20235695Y-25520778D01*
X20363167Y-25573578D01*
X20363172Y-25573580D01*
X20363176Y-25573580D01*
X20363177Y-25573581D01*
X20498504Y-25600500D01*
X20498507Y-25600500D01*
X32573996Y-25600500D01*
X32665040Y-25582389D01*
X32709328Y-25573580D01*
X32773069Y-25547177D01*
X32836807Y-25520777D01*
X32836808Y-25520776D01*
X32836811Y-25520775D01*
X32951543Y-25444114D01*
X33413838Y-24981817D01*
X33475161Y-24948333D01*
X33501519Y-24945499D01*
X34960371Y-24945499D01*
X34960372Y-24945499D01*
X35019983Y-24939091D01*
X35154831Y-24888796D01*
X35270046Y-24802546D01*
X35356296Y-24687331D01*
X35366690Y-24659460D01*
X35408560Y-24603527D01*
X35474023Y-24579108D01*
X35542297Y-24593958D01*
X35555746Y-24602465D01*
X35738462Y-24735217D01*
X35870599Y-24802544D01*
X35942244Y-24839049D01*
X36159751Y-24909721D01*
X36159752Y-24909721D01*
X36159755Y-24909722D01*
X36385646Y-24945500D01*
X36385647Y-24945500D01*
X36614353Y-24945500D01*
X36614354Y-24945500D01*
X36840245Y-24909722D01*
X36840248Y-24909721D01*
X36840249Y-24909721D01*
X37057755Y-24839049D01*
X37057755Y-24839048D01*
X37057758Y-24839048D01*
X37261538Y-24735217D01*
X37446566Y-24600786D01*
X37608286Y-24439066D01*
X37669992Y-24354134D01*
X37725319Y-24311470D01*
X37794932Y-24305491D01*
X37856727Y-24338096D01*
X37870626Y-24354135D01*
X37932097Y-24438741D01*
X37932097Y-24438742D01*
X38093757Y-24600402D01*
X38278723Y-24734788D01*
X38482429Y-24838582D01*
X38699871Y-24909234D01*
X38790000Y-24923509D01*
X38790000Y-23993482D01*
X38808409Y-24004111D01*
X38961009Y-24045000D01*
X39118991Y-24045000D01*
X39271591Y-24004111D01*
X39290000Y-23993482D01*
X39290000Y-24923508D01*
X39380128Y-24909234D01*
X39597570Y-24838582D01*
X39801276Y-24734788D01*
X39986242Y-24600402D01*
X40147902Y-24438742D01*
X40282288Y-24253776D01*
X40386082Y-24050070D01*
X40456734Y-23832628D01*
X40478532Y-23695000D01*
X39588482Y-23695000D01*
X39599111Y-23676591D01*
X39640000Y-23523991D01*
X39640000Y-23366009D01*
X39599111Y-23213409D01*
X39588482Y-23195000D01*
X40478532Y-23195000D01*
X40456734Y-23057371D01*
X40386082Y-22839929D01*
X40282288Y-22636223D01*
X40147902Y-22451257D01*
X40008826Y-22312181D01*
X39975341Y-22250858D01*
X39980325Y-22181166D01*
X40022197Y-22125233D01*
X40087661Y-22100816D01*
X40096507Y-22100500D01*
X44058481Y-22100500D01*
X44125520Y-22120185D01*
X44146162Y-22136819D01*
X44770597Y-22761254D01*
X44804082Y-22822577D01*
X44805389Y-22868333D01*
X44799500Y-22905513D01*
X44799500Y-23094486D01*
X44829059Y-23281118D01*
X44887454Y-23460836D01*
X44942567Y-23569000D01*
X44973240Y-23629199D01*
X45084310Y-23782073D01*
X45217927Y-23915690D01*
X45370801Y-24026760D01*
X45416550Y-24050070D01*
X45539163Y-24112545D01*
X45539165Y-24112545D01*
X45539168Y-24112547D01*
X45635497Y-24143846D01*
X45718881Y-24170940D01*
X45905514Y-24200500D01*
X45905519Y-24200500D01*
X46094480Y-24200500D01*
X46094481Y-24200500D01*
X46131666Y-24194610D01*
X46200958Y-24203564D01*
X46238745Y-24229402D01*
X48703453Y-26694111D01*
X48703454Y-26694112D01*
X48818192Y-26770777D01*
X48945667Y-26823578D01*
X48945672Y-26823580D01*
X48945676Y-26823580D01*
X48945677Y-26823581D01*
X49081003Y-26850500D01*
X49081006Y-26850500D01*
X49081007Y-26850500D01*
X50041862Y-26850500D01*
X50108901Y-26870185D01*
X50142179Y-26901613D01*
X50164310Y-26932073D01*
X50297927Y-27065690D01*
X50450801Y-27176760D01*
X50530347Y-27217290D01*
X50619163Y-27262545D01*
X50619165Y-27262545D01*
X50619168Y-27262547D01*
X50798882Y-27320940D01*
X50798891Y-27320941D01*
X50803608Y-27322074D01*
X50803199Y-27323777D01*
X50859511Y-27350456D01*
X50864681Y-27355338D01*
X51053453Y-27544111D01*
X51053454Y-27544112D01*
X51168192Y-27620777D01*
X51295667Y-27673578D01*
X51295672Y-27673580D01*
X51340850Y-27682566D01*
X51379691Y-27690293D01*
X51441602Y-27722678D01*
X51476176Y-27783394D01*
X51479500Y-27811910D01*
X51479500Y-29254820D01*
X51459815Y-29321859D01*
X51407011Y-29367614D01*
X51337853Y-29377558D01*
X51318415Y-29373145D01*
X51313144Y-29371493D01*
X51204328Y-29326420D01*
X51108537Y-29307366D01*
X51102177Y-29305373D01*
X51078446Y-29289507D01*
X51053159Y-29276280D01*
X51045516Y-29267491D01*
X51044093Y-29266540D01*
X51043496Y-29265169D01*
X51038947Y-29259938D01*
X51015690Y-29227927D01*
X50882073Y-29094310D01*
X50729199Y-28983240D01*
X50560836Y-28897454D01*
X50381118Y-28839059D01*
X50194486Y-28809500D01*
X50194481Y-28809500D01*
X50005519Y-28809500D01*
X50005514Y-28809500D01*
X49818881Y-28839059D01*
X49639163Y-28897454D01*
X49470800Y-28983240D01*
X49383579Y-29046610D01*
X49317927Y-29094310D01*
X49317925Y-29094312D01*
X49317924Y-29094312D01*
X49184312Y-29227924D01*
X49184312Y-29227925D01*
X49184310Y-29227927D01*
X49157252Y-29265169D01*
X49073240Y-29380800D01*
X48987454Y-29549163D01*
X48929059Y-29728881D01*
X48899500Y-29915513D01*
X48899500Y-30104482D01*
X48905389Y-30141668D01*
X48896433Y-30210961D01*
X48870596Y-30248745D01*
X46296162Y-32823181D01*
X46234839Y-32856666D01*
X46208481Y-32859500D01*
X43297375Y-32859500D01*
X43230336Y-32839815D01*
X43184581Y-32787011D01*
X43174637Y-32717853D01*
X43174886Y-32716197D01*
X43188849Y-32628036D01*
X43189679Y-32623390D01*
X43200500Y-32568994D01*
X43200500Y-32431007D01*
X43200500Y-32365519D01*
X43194610Y-32328332D01*
X43203565Y-32259038D01*
X43229399Y-32221256D01*
X44703838Y-30746819D01*
X44765161Y-30713334D01*
X44791519Y-30710500D01*
X45911862Y-30710500D01*
X45978901Y-30730185D01*
X46012179Y-30761613D01*
X46034310Y-30792073D01*
X46167927Y-30925690D01*
X46320801Y-31036760D01*
X46353569Y-31053456D01*
X46489163Y-31122545D01*
X46489165Y-31122545D01*
X46489168Y-31122547D01*
X46525451Y-31134336D01*
X46668881Y-31180940D01*
X46855514Y-31210500D01*
X46855519Y-31210500D01*
X47044486Y-31210500D01*
X47231118Y-31180940D01*
X47410832Y-31122547D01*
X47579199Y-31036760D01*
X47732073Y-30925690D01*
X47865690Y-30792073D01*
X47976760Y-30639199D01*
X48062547Y-30470832D01*
X48120940Y-30291118D01*
X48127651Y-30248745D01*
X48150500Y-30104486D01*
X48150500Y-29915513D01*
X48120940Y-29728881D01*
X48062545Y-29549163D01*
X47976759Y-29380800D01*
X47974404Y-29377558D01*
X47865690Y-29227927D01*
X47732073Y-29094310D01*
X47579199Y-28983240D01*
X47410836Y-28897454D01*
X47231118Y-28839059D01*
X47044486Y-28809500D01*
X47044481Y-28809500D01*
X46855519Y-28809500D01*
X46855514Y-28809500D01*
X46668881Y-28839059D01*
X46489163Y-28897454D01*
X46320800Y-28983240D01*
X46233579Y-29046610D01*
X46167927Y-29094310D01*
X46167925Y-29094312D01*
X46167924Y-29094312D01*
X46034309Y-29227927D01*
X46012179Y-29258387D01*
X45956848Y-29301052D01*
X45911862Y-29309500D01*
X44520518Y-29309500D01*
X44453479Y-29289815D01*
X44407724Y-29237011D01*
X44397780Y-29167853D01*
X44426805Y-29104297D01*
X44432837Y-29097819D01*
X44721156Y-28809500D01*
X46167791Y-27362864D01*
X46229112Y-27329381D01*
X46236042Y-27328078D01*
X46281118Y-27320940D01*
X46460832Y-27262547D01*
X46629199Y-27176760D01*
X46782073Y-27065690D01*
X46915690Y-26932073D01*
X47026760Y-26779199D01*
X47112547Y-26610832D01*
X47170940Y-26431118D01*
X47200500Y-26244486D01*
X47200500Y-26055513D01*
X47170940Y-25868881D01*
X47112545Y-25689163D01*
X47026759Y-25520800D01*
X47026743Y-25520778D01*
X46915690Y-25367927D01*
X46782073Y-25234310D01*
X46629199Y-25123240D01*
X46592082Y-25104328D01*
X46460836Y-25037454D01*
X46281118Y-24979059D01*
X46094486Y-24949500D01*
X46094481Y-24949500D01*
X45905519Y-24949500D01*
X45905514Y-24949500D01*
X45718881Y-24979059D01*
X45539163Y-25037454D01*
X45370800Y-25123240D01*
X45283579Y-25186610D01*
X45217927Y-25234310D01*
X45217925Y-25234312D01*
X45217924Y-25234312D01*
X45084312Y-25367924D01*
X45084312Y-25367925D01*
X45084310Y-25367927D01*
X45051431Y-25413181D01*
X44973240Y-25520800D01*
X44887454Y-25689163D01*
X44829059Y-25868881D01*
X44799500Y-26055513D01*
X44799500Y-26244486D01*
X44829060Y-26431119D01*
X44829060Y-26431122D01*
X44876492Y-26577100D01*
X44878487Y-26646941D01*
X44846242Y-26703099D01*
X39912180Y-31637162D01*
X39850857Y-31670647D01*
X39781165Y-31665663D01*
X39725232Y-31623791D01*
X39700815Y-31558327D01*
X39700499Y-31549481D01*
X39700499Y-31431005D01*
X39700498Y-31431001D01*
X39678552Y-31320668D01*
X39673580Y-31295672D01*
X39620774Y-31168189D01*
X39620772Y-31168186D01*
X39620770Y-31168182D01*
X39544113Y-31053456D01*
X39446543Y-30955886D01*
X39331817Y-30879229D01*
X39331807Y-30879224D01*
X39204328Y-30826420D01*
X39204320Y-30826418D01*
X39068998Y-30799501D01*
X39068994Y-30799501D01*
X38931006Y-30799501D01*
X38863338Y-30812960D01*
X38795669Y-30826420D01*
X38668189Y-30879225D01*
X38668185Y-30879227D01*
X38553464Y-30955880D01*
X38553454Y-30955889D01*
X38515578Y-30993764D01*
X38454254Y-31027248D01*
X38384563Y-31022262D01*
X38371605Y-31016566D01*
X38309219Y-30984779D01*
X38114536Y-30921523D01*
X37978645Y-30900000D01*
X37912352Y-30889500D01*
X37707648Y-30889500D01*
X37683329Y-30893351D01*
X37505465Y-30921522D01*
X37310776Y-30984781D01*
X37128386Y-31077715D01*
X36962786Y-31198028D01*
X36818028Y-31342786D01*
X36697715Y-31508386D01*
X36604781Y-31690776D01*
X36541522Y-31885465D01*
X36509500Y-32087648D01*
X36509500Y-32292351D01*
X36541522Y-32494534D01*
X36604781Y-32689223D01*
X36656135Y-32790009D01*
X36693231Y-32862814D01*
X36697715Y-32871613D01*
X36818028Y-33037213D01*
X36962786Y-33181971D01*
X37117749Y-33294556D01*
X37128390Y-33302287D01*
X37219840Y-33348883D01*
X37221080Y-33349515D01*
X37271876Y-33397490D01*
X37288671Y-33465311D01*
X37266134Y-33531446D01*
X37221080Y-33570485D01*
X37128386Y-33617715D01*
X36962786Y-33738028D01*
X36818028Y-33882786D01*
X36697715Y-34048386D01*
X36604781Y-34230776D01*
X36541522Y-34425465D01*
X36509500Y-34627648D01*
X36509500Y-34832351D01*
X36541522Y-35034534D01*
X36604781Y-35229223D01*
X36697715Y-35411613D01*
X36818028Y-35577213D01*
X36962786Y-35721971D01*
X37128385Y-35842284D01*
X37128387Y-35842285D01*
X37128390Y-35842287D01*
X37221080Y-35889515D01*
X37221630Y-35889795D01*
X37272426Y-35937770D01*
X37289221Y-36005591D01*
X37266684Y-36071725D01*
X37221630Y-36110765D01*
X37128644Y-36158143D01*
X37084077Y-36190523D01*
X37084077Y-36190524D01*
X37763554Y-36870000D01*
X37757339Y-36870000D01*
X37655606Y-36897259D01*
X37564394Y-36949920D01*
X37489920Y-37024394D01*
X37437259Y-37115606D01*
X37410000Y-37217339D01*
X37410000Y-37223553D01*
X36730524Y-36544077D01*
X36730523Y-36544077D01*
X36698143Y-36588644D01*
X36605244Y-36770968D01*
X36542009Y-36965582D01*
X36510000Y-37167682D01*
X36510000Y-37372317D01*
X36542009Y-37574417D01*
X36587490Y-37714389D01*
X36589485Y-37784231D01*
X36553405Y-37844064D01*
X36490704Y-37874892D01*
X36469559Y-37876708D01*
X34378727Y-37876708D01*
X34311688Y-37857023D01*
X34291046Y-37840389D01*
X31506805Y-35056148D01*
X31473320Y-34994825D01*
X31472013Y-34949068D01*
X31490500Y-34832352D01*
X31490500Y-34627648D01*
X31485017Y-34593032D01*
X31458477Y-34425465D01*
X31415783Y-34294068D01*
X31395220Y-34230781D01*
X31395218Y-34230778D01*
X31395218Y-34230776D01*
X31309853Y-34063240D01*
X31302287Y-34048390D01*
X31269349Y-34003054D01*
X31181971Y-33882786D01*
X31037219Y-33738034D01*
X30960770Y-33682491D01*
X30943547Y-33669978D01*
X30900882Y-33614649D01*
X30894903Y-33545036D01*
X30927508Y-33483240D01*
X30977426Y-33451955D01*
X31059334Y-33424814D01*
X31208656Y-33332712D01*
X31332712Y-33208656D01*
X31424814Y-33059334D01*
X31479999Y-32892797D01*
X31490500Y-32790009D01*
X31490499Y-31589992D01*
X31479999Y-31487203D01*
X31424814Y-31320666D01*
X31332712Y-31171344D01*
X31208656Y-31047288D01*
X31060469Y-30955886D01*
X31059336Y-30955187D01*
X31059331Y-30955185D01*
X31047175Y-30951157D01*
X30892797Y-30900001D01*
X30892795Y-30900000D01*
X30790010Y-30889500D01*
X29589998Y-30889500D01*
X29589981Y-30889501D01*
X29487203Y-30900000D01*
X29487200Y-30900001D01*
X29320668Y-30955185D01*
X29320663Y-30955187D01*
X29171342Y-31047289D01*
X29047289Y-31171342D01*
X28955187Y-31320663D01*
X28955186Y-31320666D01*
X28900001Y-31487203D01*
X28900001Y-31487204D01*
X28900000Y-31487204D01*
X28889500Y-31589983D01*
X28889500Y-32790001D01*
X28889501Y-32790018D01*
X28900000Y-32892796D01*
X28900001Y-32892799D01*
X28934512Y-32996945D01*
X28955186Y-33059334D01*
X29047288Y-33208656D01*
X29171344Y-33332712D01*
X29320666Y-33424814D01*
X29402570Y-33451954D01*
X29460015Y-33491727D01*
X29486838Y-33556243D01*
X29474523Y-33625018D01*
X29436451Y-33669978D01*
X29342787Y-33738028D01*
X29342782Y-33738032D01*
X29198028Y-33882786D01*
X29077715Y-34048386D01*
X28984781Y-34230776D01*
X28921522Y-34425465D01*
X28889500Y-34627648D01*
X28889500Y-34832351D01*
X28921522Y-35034534D01*
X28984781Y-35229223D01*
X29077715Y-35411613D01*
X29198028Y-35577213D01*
X29342786Y-35721971D01*
X29497749Y-35834556D01*
X29508390Y-35842287D01*
X29599840Y-35888883D01*
X29601080Y-35889515D01*
X29651876Y-35937490D01*
X29668671Y-36005311D01*
X29646134Y-36071446D01*
X29601080Y-36110485D01*
X29508386Y-36157715D01*
X29342786Y-36278028D01*
X29198030Y-36422784D01*
X29128575Y-36518384D01*
X29073245Y-36561051D01*
X29028256Y-36569500D01*
X25865418Y-36569500D01*
X25757005Y-36591065D01*
X25757004Y-36591065D01*
X25743546Y-36593742D01*
X25730088Y-36596419D01*
X25730086Y-36596420D01*
X25677281Y-36618292D01*
X25677279Y-36618293D01*
X25677278Y-36618292D01*
X25602606Y-36649223D01*
X25493415Y-36722183D01*
X25487873Y-36725885D01*
X25487866Y-36725891D01*
X22036796Y-40176961D01*
X21975473Y-40210446D01*
X21929716Y-40211753D01*
X21852356Y-40199500D01*
X21852352Y-40199500D01*
X21647648Y-40199500D01*
X21593704Y-40208044D01*
X21445464Y-40231523D01*
X21445457Y-40231524D01*
X21412817Y-40242130D01*
X21342976Y-40244125D01*
X21283143Y-40208044D01*
X21252316Y-40145343D01*
X21250500Y-40124199D01*
X21250500Y-37137776D01*
X21270185Y-37070737D01*
X21301612Y-37037460D01*
X21353733Y-36999593D01*
X21499593Y-36853733D01*
X21620840Y-36686852D01*
X21714488Y-36503057D01*
X21760753Y-36360668D01*
X21778230Y-36306880D01*
X21778230Y-36306879D01*
X21778231Y-36306876D01*
X21810500Y-36103139D01*
X21810500Y-35896861D01*
X21790753Y-35772186D01*
X21799707Y-35702896D01*
X21825542Y-35665113D01*
X22665112Y-34825543D01*
X22726433Y-34792060D01*
X22772185Y-34790753D01*
X22896861Y-34810500D01*
X22896863Y-34810500D01*
X23103138Y-34810500D01*
X23103139Y-34810500D01*
X23306876Y-34778231D01*
X23306879Y-34778230D01*
X23306880Y-34778230D01*
X23503054Y-34714489D01*
X23503054Y-34714488D01*
X23503057Y-34714488D01*
X23686852Y-34620840D01*
X23853733Y-34499593D01*
X23999593Y-34353733D01*
X24120840Y-34186852D01*
X24214488Y-34003057D01*
X24246180Y-33905519D01*
X24278230Y-33806880D01*
X24278230Y-33806879D01*
X24278231Y-33806876D01*
X24310500Y-33603139D01*
X24310500Y-33396861D01*
X24278231Y-33193124D01*
X24278230Y-33193120D01*
X24278230Y-33193119D01*
X24214489Y-32996945D01*
X24175708Y-32920833D01*
X24120840Y-32813148D01*
X23999593Y-32646267D01*
X23853733Y-32500407D01*
X23686852Y-32379160D01*
X23660080Y-32365519D01*
X23503054Y-32285510D01*
X23306879Y-32221769D01*
X23154073Y-32197567D01*
X23103139Y-32189500D01*
X22896861Y-32189500D01*
X22828948Y-32200256D01*
X22693122Y-32221769D01*
X22693119Y-32221769D01*
X22496945Y-32285510D01*
X22313147Y-32379160D01*
X22146265Y-32500408D01*
X22000408Y-32646265D01*
X21879160Y-32813147D01*
X21785510Y-32996945D01*
X21721769Y-33193119D01*
X21721769Y-33193122D01*
X21689500Y-33396861D01*
X21689500Y-33603144D01*
X21709245Y-33727809D01*
X21700290Y-33797103D01*
X21674453Y-33834888D01*
X20834888Y-34674453D01*
X20773565Y-34707938D01*
X20727809Y-34709245D01*
X20603144Y-34689500D01*
X20603139Y-34689500D01*
X20396861Y-34689500D01*
X20328948Y-34700256D01*
X20193122Y-34721769D01*
X20193119Y-34721769D01*
X19996945Y-34785510D01*
X19813147Y-34879160D01*
X19646265Y-35000408D01*
X19500408Y-35146265D01*
X19379160Y-35313147D01*
X19285510Y-35496945D01*
X19221769Y-35693119D01*
X19221769Y-35693122D01*
X19190619Y-35889795D01*
X19189500Y-35896861D01*
X18328620Y-35896861D01*
X18328620Y-30896861D01*
X19189500Y-30896861D01*
X19189500Y-31103139D01*
X19200302Y-31171342D01*
X19221769Y-31306877D01*
X19221769Y-31306880D01*
X19285510Y-31503054D01*
X19347029Y-31623791D01*
X19379160Y-31686852D01*
X19500407Y-31853733D01*
X19646267Y-31999593D01*
X19813148Y-32120840D01*
X19947901Y-32189500D01*
X19996945Y-32214489D01*
X20193120Y-32278230D01*
X20193121Y-32278230D01*
X20193124Y-32278231D01*
X20396861Y-32310500D01*
X20396862Y-32310500D01*
X20603138Y-32310500D01*
X20603139Y-32310500D01*
X20806876Y-32278231D01*
X20806879Y-32278230D01*
X20806880Y-32278230D01*
X21003054Y-32214489D01*
X21003054Y-32214488D01*
X21003057Y-32214488D01*
X21186852Y-32120840D01*
X21353733Y-31999593D01*
X21499593Y-31853733D01*
X21620840Y-31686852D01*
X21714488Y-31503057D01*
X21737899Y-31431005D01*
X21778230Y-31306880D01*
X21778230Y-31306879D01*
X21778231Y-31306876D01*
X21810500Y-31103139D01*
X21810500Y-30896861D01*
X21778231Y-30693124D01*
X21778230Y-30693120D01*
X21778230Y-30693119D01*
X21714489Y-30496945D01*
X21620839Y-30313147D01*
X21546596Y-30210961D01*
X21499593Y-30146267D01*
X21353733Y-30000407D01*
X21186852Y-29879160D01*
X21003054Y-29785510D01*
X20806879Y-29721769D01*
X20654073Y-29697567D01*
X20603139Y-29689500D01*
X20396861Y-29689500D01*
X20328948Y-29700256D01*
X20193122Y-29721769D01*
X20193119Y-29721769D01*
X19996945Y-29785510D01*
X19813147Y-29879160D01*
X19646265Y-30000408D01*
X19500408Y-30146265D01*
X19379160Y-30313147D01*
X19285510Y-30496945D01*
X19221769Y-30693119D01*
X19221769Y-30693122D01*
X19204920Y-30799501D01*
X19189500Y-30896861D01*
X18328620Y-30896861D01*
X18328620Y-19755513D01*
X44799500Y-19755513D01*
X44799500Y-19944486D01*
X44829059Y-20131118D01*
X44887454Y-20310836D01*
X44973240Y-20479199D01*
X45084310Y-20632073D01*
X45217927Y-20765690D01*
X45370801Y-20876760D01*
X45450347Y-20917290D01*
X45539163Y-20962545D01*
X45539165Y-20962545D01*
X45539168Y-20962547D01*
X45635497Y-20993846D01*
X45718881Y-21020940D01*
X45905514Y-21050500D01*
X45905519Y-21050500D01*
X46094486Y-21050500D01*
X46281118Y-21020940D01*
X46460832Y-20962547D01*
X46629199Y-20876760D01*
X46782073Y-20765690D01*
X46915690Y-20632073D01*
X47026760Y-20479199D01*
X47112547Y-20310832D01*
X47170940Y-20131118D01*
X47194611Y-19981665D01*
X47200500Y-19944486D01*
X47200500Y-19755513D01*
X47170940Y-19568881D01*
X47112545Y-19389163D01*
X47026759Y-19220800D01*
X46915690Y-19067927D01*
X46782073Y-18934310D01*
X46629199Y-18823240D01*
X46460836Y-18737454D01*
X46281118Y-18679059D01*
X46094486Y-18649500D01*
X46094481Y-18649500D01*
X45905519Y-18649500D01*
X45905514Y-18649500D01*
X45718881Y-18679059D01*
X45539163Y-18737454D01*
X45370800Y-18823240D01*
X45283579Y-18886610D01*
X45217927Y-18934310D01*
X45217925Y-18934312D01*
X45217924Y-18934312D01*
X45084312Y-19067924D01*
X45084312Y-19067925D01*
X45084310Y-19067927D01*
X45036610Y-19133579D01*
X44973240Y-19220800D01*
X44887454Y-19389163D01*
X44829059Y-19568881D01*
X44799500Y-19755513D01*
X18328620Y-19755513D01*
X18328620Y-18078668D01*
X18348305Y-18011629D01*
X18401109Y-17965874D01*
X18452620Y-17954668D01*
X54032367Y-17954668D01*
X54099406Y-17974353D01*
G37*
%TD.AperFunction*%
%TD*%
M02*
